<svg xmlns="http://www.w3.org/2000/svg" width="384" height="120" viewBox="0 0 384 120">
<g id="home-0" transform="translate(0 0)"><path d="M3 10 12 3l9 7M5 9v12h5v-7h4v7h5V9" fill="none" stroke="#596578" stroke-width="1.8" stroke-linecap="round" stroke-linejoin="round"/></g>
<g id="exchange-0" transform="translate(24 0)"><path d="M4 8h15l-4-4M20 16H5l4 4M19 8l-4 4M5 16l4-4" fill="none" stroke="#596578" stroke-width="1.8" stroke-linecap="round" stroke-linejoin="round"/></g>
<g id="plus-0" transform="translate(48 0)"><path d="M12 4v16M4 12h16" fill="none" stroke="#596578" stroke-width="1.8" stroke-linecap="round" stroke-linejoin="round"/></g>
<g id="user-0" transform="translate(72 0)"><path d="M16 7a4 4 0 1 1-8 0 4 4 0 0 1 8 0M4 21v-2a8 8 0 0 1 16 0v2" fill="none" stroke="#596578" stroke-width="1.8" stroke-linecap="round" stroke-linejoin="round"/></g>
<g id="search-0" transform="translate(96 0)"><path d="M17 10a7 7 0 1 1-14 0 7 7 0 0 1 14 0M15 15l6 6" fill="none" stroke="#596578" stroke-width="1.8" stroke-linecap="round" stroke-linejoin="round"/></g>
<g id="close-0" transform="translate(120 0)"><path d="M6 6l12 12M18 6 6 18" fill="none" stroke="#596578" stroke-width="1.8" stroke-linecap="round" stroke-linejoin="round"/></g>
<g id="sun-0" transform="translate(144 0)"><path d="M16 12a4 4 0 1 1-8 0 4 4 0 0 1 8 0M12 2v2M12 20v2M2 12h2M20 12h2M5 5l1.5 1.5M17.5 17.5 19 19M5 19l1.5-1.5M17.5 6.5 19 5" fill="none" stroke="#596578" stroke-width="1.8" stroke-linecap="round" stroke-linejoin="round"/></g>
<g id="moon-0" transform="translate(168 0)"><path d="M20 14A8.5 8.5 0 1 1 10 3a7 7 0 0 0 10 11Z" fill="none" stroke="#596578" stroke-width="1.8" stroke-linecap="round" stroke-linejoin="round"/></g>
<g id="heart-0" transform="translate(192 0)"><path d="M12 21 3.8 13A5.5 5.5 0 0 1 12 5.7 5.5 5.5 0 0 1 20.2 13Z" fill="none" stroke="#596578" stroke-width="1.8" stroke-linecap="round" stroke-linejoin="round"/></g>
<g id="arrow-0" transform="translate(216 0)"><path d="M4 12h16M14 6l6 6-6 6" fill="none" stroke="#596578" stroke-width="1.8" stroke-linecap="round" stroke-linejoin="round"/></g>
<g id="grid-0" transform="translate(240 0)"><path d="M3 3h7v7H3ZM14 3h7v7h-7ZM3 14h7v7H3ZM14 14h7v7h-7Z" fill="none" stroke="#596578" stroke-width="1.8" stroke-linecap="round" stroke-linejoin="round"/></g>
<g id="target-0" transform="translate(264 0)"><path d="M21 12a9 9 0 1 1-18 0 9 9 0 0 1 18 0M16 12a4 4 0 1 1-8 0 4 4 0 0 1 8 0" fill="none" stroke="#596578" stroke-width="1.8" stroke-linecap="round" stroke-linejoin="round"/></g>
<g id="alert-0" transform="translate(288 0)"><path d="M12 3 2 21h20ZM12 9v5M12 17v.5" fill="none" stroke="#596578" stroke-width="1.8" stroke-linecap="round" stroke-linejoin="round"/></g>
<g id="loop-0" transform="translate(312 0)"><path d="M20 9A8 8 0 0 0 5 6L2 9M2 3v6h6M4 15a8 8 0 0 0 15 3l3-3M22 21v-6h-6" fill="none" stroke="#596578" stroke-width="1.8" stroke-linecap="round" stroke-linejoin="round"/></g>
<g id="box-0" transform="translate(336 0)"><path d="m3 7 9-5 9 5v10l-9 5-9-5ZM3 7l9 5 9-5M12 12v10M7.5 4.5l9 5V15" fill="none" stroke="#596578" stroke-width="1.8" stroke-linecap="round" stroke-linejoin="round"/></g>
<g id="check-0" transform="translate(360 0)"><path d="m5 12 4 4L19 6" fill="none" stroke="#596578" stroke-width="1.8" stroke-linecap="round" stroke-linejoin="round"/></g>
<g id="home-1" transform="translate(0 24)"><path d="M3 10 12 3l9 7M5 9v12h5v-7h4v7h5V9" fill="none" stroke="#b0bbcd" stroke-width="1.8" stroke-linecap="round" stroke-linejoin="round"/></g>
<g id="exchange-1" transform="translate(24 24)"><path d="M4 8h15l-4-4M20 16H5l4 4M19 8l-4 4M5 16l4-4" fill="none" stroke="#b0bbcd" stroke-width="1.8" stroke-linecap="round" stroke-linejoin="round"/></g>
<g id="plus-1" transform="translate(48 24)"><path d="M12 4v16M4 12h16" fill="none" stroke="#b0bbcd" stroke-width="1.8" stroke-linecap="round" stroke-linejoin="round"/></g>
<g id="user-1" transform="translate(72 24)"><path d="M16 7a4 4 0 1 1-8 0 4 4 0 0 1 8 0M4 21v-2a8 8 0 0 1 16 0v2" fill="none" stroke="#b0bbcd" stroke-width="1.8" stroke-linecap="round" stroke-linejoin="round"/></g>
<g id="search-1" transform="translate(96 24)"><path d="M17 10a7 7 0 1 1-14 0 7 7 0 0 1 14 0M15 15l6 6" fill="none" stroke="#b0bbcd" stroke-width="1.8" stroke-linecap="round" stroke-linejoin="round"/></g>
<g id="close-1" transform="translate(120 24)"><path d="M6 6l12 12M18 6 6 18" fill="none" stroke="#b0bbcd" stroke-width="1.8" stroke-linecap="round" stroke-linejoin="round"/></g>
<g id="sun-1" transform="translate(144 24)"><path d="M16 12a4 4 0 1 1-8 0 4 4 0 0 1 8 0M12 2v2M12 20v2M2 12h2M20 12h2M5 5l1.5 1.5M17.5 17.5 19 19M5 19l1.5-1.5M17.5 6.5 19 5" fill="none" stroke="#b0bbcd" stroke-width="1.8" stroke-linecap="round" stroke-linejoin="round"/></g>
<g id="moon-1" transform="translate(168 24)"><path d="M20 14A8.5 8.5 0 1 1 10 3a7 7 0 0 0 10 11Z" fill="none" stroke="#b0bbcd" stroke-width="1.8" stroke-linecap="round" stroke-linejoin="round"/></g>
<g id="heart-1" transform="translate(192 24)"><path d="M12 21 3.8 13A5.5 5.5 0 0 1 12 5.7 5.5 5.5 0 0 1 20.2 13Z" fill="none" stroke="#b0bbcd" stroke-width="1.8" stroke-linecap="round" stroke-linejoin="round"/></g>
<g id="arrow-1" transform="translate(216 24)"><path d="M4 12h16M14 6l6 6-6 6" fill="none" stroke="#b0bbcd" stroke-width="1.8" stroke-linecap="round" stroke-linejoin="round"/></g>
<g id="grid-1" transform="translate(240 24)"><path d="M3 3h7v7H3ZM14 3h7v7h-7ZM3 14h7v7H3ZM14 14h7v7h-7Z" fill="none" stroke="#b0bbcd" stroke-width="1.8" stroke-linecap="round" stroke-linejoin="round"/></g>
<g id="target-1" transform="translate(264 24)"><path d="M21 12a9 9 0 1 1-18 0 9 9 0 0 1 18 0M16 12a4 4 0 1 1-8 0 4 4 0 0 1 8 0" fill="none" stroke="#b0bbcd" stroke-width="1.8" stroke-linecap="round" stroke-linejoin="round"/></g>
<g id="alert-1" transform="translate(288 24)"><path d="M12 3 2 21h20ZM12 9v5M12 17v.5" fill="none" stroke="#b0bbcd" stroke-width="1.8" stroke-linecap="round" stroke-linejoin="round"/></g>
<g id="loop-1" transform="translate(312 24)"><path d="M20 9A8 8 0 0 0 5 6L2 9M2 3v6h6M4 15a8 8 0 0 0 15 3l3-3M22 21v-6h-6" fill="none" stroke="#b0bbcd" stroke-width="1.8" stroke-linecap="round" stroke-linejoin="round"/></g>
<g id="box-1" transform="translate(336 24)"><path d="m3 7 9-5 9 5v10l-9 5-9-5ZM3 7l9 5 9-5M12 12v10M7.5 4.5l9 5V15" fill="none" stroke="#b0bbcd" stroke-width="1.8" stroke-linecap="round" stroke-linejoin="round"/></g>
<g id="check-1" transform="translate(360 24)"><path d="m5 12 4 4L19 6" fill="none" stroke="#b0bbcd" stroke-width="1.8" stroke-linecap="round" stroke-linejoin="round"/></g>
<g id="home-2" transform="translate(0 48)"><path d="M3 10 12 3l9 7M5 9v12h5v-7h4v7h5V9" fill="none" stroke="#ca376f" stroke-width="1.8" stroke-linecap="round" stroke-linejoin="round"/></g>
<g id="exchange-2" transform="translate(24 48)"><path d="M4 8h15l-4-4M20 16H5l4 4M19 8l-4 4M5 16l4-4" fill="none" stroke="#ca376f" stroke-width="1.8" stroke-linecap="round" stroke-linejoin="round"/></g>
<g id="plus-2" transform="translate(48 48)"><path d="M12 4v16M4 12h16" fill="none" stroke="#ca376f" stroke-width="1.8" stroke-linecap="round" stroke-linejoin="round"/></g>
<g id="user-2" transform="translate(72 48)"><path d="M16 7a4 4 0 1 1-8 0 4 4 0 0 1 8 0M4 21v-2a8 8 0 0 1 16 0v2" fill="none" stroke="#ca376f" stroke-width="1.8" stroke-linecap="round" stroke-linejoin="round"/></g>
<g id="search-2" transform="translate(96 48)"><path d="M17 10a7 7 0 1 1-14 0 7 7 0 0 1 14 0M15 15l6 6" fill="none" stroke="#ca376f" stroke-width="1.8" stroke-linecap="round" stroke-linejoin="round"/></g>
<g id="close-2" transform="translate(120 48)"><path d="M6 6l12 12M18 6 6 18" fill="none" stroke="#ca376f" stroke-width="1.8" stroke-linecap="round" stroke-linejoin="round"/></g>
<g id="sun-2" transform="translate(144 48)"><path d="M16 12a4 4 0 1 1-8 0 4 4 0 0 1 8 0M12 2v2M12 20v2M2 12h2M20 12h2M5 5l1.5 1.5M17.5 17.5 19 19M5 19l1.5-1.5M17.5 6.5 19 5" fill="none" stroke="#ca376f" stroke-width="1.8" stroke-linecap="round" stroke-linejoin="round"/></g>
<g id="moon-2" transform="translate(168 48)"><path d="M20 14A8.5 8.5 0 1 1 10 3a7 7 0 0 0 10 11Z" fill="none" stroke="#ca376f" stroke-width="1.8" stroke-linecap="round" stroke-linejoin="round"/></g>
<g id="heart-2" transform="translate(192 48)"><path d="M12 21 3.8 13A5.5 5.5 0 0 1 12 5.7 5.5 5.5 0 0 1 20.2 13Z" fill="none" stroke="#ca376f" stroke-width="1.8" stroke-linecap="round" stroke-linejoin="round"/></g>
<g id="arrow-2" transform="translate(216 48)"><path d="M4 12h16M14 6l6 6-6 6" fill="none" stroke="#ca376f" stroke-width="1.8" stroke-linecap="round" stroke-linejoin="round"/></g>
<g id="grid-2" transform="translate(240 48)"><path d="M3 3h7v7H3ZM14 3h7v7h-7ZM3 14h7v7H3ZM14 14h7v7h-7Z" fill="none" stroke="#ca376f" stroke-width="1.8" stroke-linecap="round" stroke-linejoin="round"/></g>
<g id="target-2" transform="translate(264 48)"><path d="M21 12a9 9 0 1 1-18 0 9 9 0 0 1 18 0M16 12a4 4 0 1 1-8 0 4 4 0 0 1 8 0" fill="none" stroke="#ca376f" stroke-width="1.8" stroke-linecap="round" stroke-linejoin="round"/></g>
<g id="alert-2" transform="translate(288 48)"><path d="M12 3 2 21h20ZM12 9v5M12 17v.5" fill="none" stroke="#ca376f" stroke-width="1.8" stroke-linecap="round" stroke-linejoin="round"/></g>
<g id="loop-2" transform="translate(312 48)"><path d="M20 9A8 8 0 0 0 5 6L2 9M2 3v6h6M4 15a8 8 0 0 0 15 3l3-3M22 21v-6h-6" fill="none" stroke="#ca376f" stroke-width="1.8" stroke-linecap="round" stroke-linejoin="round"/></g>
<g id="box-2" transform="translate(336 48)"><path d="m3 7 9-5 9 5v10l-9 5-9-5ZM3 7l9 5 9-5M12 12v10M7.5 4.5l9 5V15" fill="none" stroke="#ca376f" stroke-width="1.8" stroke-linecap="round" stroke-linejoin="round"/></g>
<g id="check-2" transform="translate(360 48)"><path d="m5 12 4 4L19 6" fill="none" stroke="#ca376f" stroke-width="1.8" stroke-linecap="round" stroke-linejoin="round"/></g>
<g id="home-3" transform="translate(0 72)"><path d="M3 10 12 3l9 7M5 9v12h5v-7h4v7h5V9" fill="none" stroke="#ffffff" stroke-width="1.8" stroke-linecap="round" stroke-linejoin="round"/></g>
<g id="exchange-3" transform="translate(24 72)"><path d="M4 8h15l-4-4M20 16H5l4 4M19 8l-4 4M5 16l4-4" fill="none" stroke="#ffffff" stroke-width="1.8" stroke-linecap="round" stroke-linejoin="round"/></g>
<g id="plus-3" transform="translate(48 72)"><path d="M12 4v16M4 12h16" fill="none" stroke="#ffffff" stroke-width="1.8" stroke-linecap="round" stroke-linejoin="round"/></g>
<g id="user-3" transform="translate(72 72)"><path d="M16 7a4 4 0 1 1-8 0 4 4 0 0 1 8 0M4 21v-2a8 8 0 0 1 16 0v2" fill="none" stroke="#ffffff" stroke-width="1.8" stroke-linecap="round" stroke-linejoin="round"/></g>
<g id="search-3" transform="translate(96 72)"><path d="M17 10a7 7 0 1 1-14 0 7 7 0 0 1 14 0M15 15l6 6" fill="none" stroke="#ffffff" stroke-width="1.8" stroke-linecap="round" stroke-linejoin="round"/></g>
<g id="close-3" transform="translate(120 72)"><path d="M6 6l12 12M18 6 6 18" fill="none" stroke="#ffffff" stroke-width="1.8" stroke-linecap="round" stroke-linejoin="round"/></g>
<g id="sun-3" transform="translate(144 72)"><path d="M16 12a4 4 0 1 1-8 0 4 4 0 0 1 8 0M12 2v2M12 20v2M2 12h2M20 12h2M5 5l1.5 1.5M17.5 17.5 19 19M5 19l1.5-1.5M17.5 6.5 19 5" fill="none" stroke="#ffffff" stroke-width="1.8" stroke-linecap="round" stroke-linejoin="round"/></g>
<g id="moon-3" transform="translate(168 72)"><path d="M20 14A8.5 8.5 0 1 1 10 3a7 7 0 0 0 10 11Z" fill="none" stroke="#ffffff" stroke-width="1.8" stroke-linecap="round" stroke-linejoin="round"/></g>
<g id="heart-3" transform="translate(192 72)"><path d="M12 21 3.8 13A5.5 5.5 0 0 1 12 5.7 5.5 5.5 0 0 1 20.2 13Z" fill="none" stroke="#ffffff" stroke-width="1.8" stroke-linecap="round" stroke-linejoin="round"/></g>
<g id="arrow-3" transform="translate(216 72)"><path d="M4 12h16M14 6l6 6-6 6" fill="none" stroke="#ffffff" stroke-width="1.8" stroke-linecap="round" stroke-linejoin="round"/></g>
<g id="grid-3" transform="translate(240 72)"><path d="M3 3h7v7H3ZM14 3h7v7h-7ZM3 14h7v7H3ZM14 14h7v7h-7Z" fill="none" stroke="#ffffff" stroke-width="1.8" stroke-linecap="round" stroke-linejoin="round"/></g>
<g id="target-3" transform="translate(264 72)"><path d="M21 12a9 9 0 1 1-18 0 9 9 0 0 1 18 0M16 12a4 4 0 1 1-8 0 4 4 0 0 1 8 0" fill="none" stroke="#ffffff" stroke-width="1.8" stroke-linecap="round" stroke-linejoin="round"/></g>
<g id="alert-3" transform="translate(288 72)"><path d="M12 3 2 21h20ZM12 9v5M12 17v.5" fill="none" stroke="#ffffff" stroke-width="1.8" stroke-linecap="round" stroke-linejoin="round"/></g>
<g id="loop-3" transform="translate(312 72)"><path d="M20 9A8 8 0 0 0 5 6L2 9M2 3v6h6M4 15a8 8 0 0 0 15 3l3-3M22 21v-6h-6" fill="none" stroke="#ffffff" stroke-width="1.8" stroke-linecap="round" stroke-linejoin="round"/></g>
<g id="box-3" transform="translate(336 72)"><path d="m3 7 9-5 9 5v10l-9 5-9-5ZM3 7l9 5 9-5M12 12v10M7.5 4.5l9 5V15" fill="none" stroke="#ffffff" stroke-width="1.8" stroke-linecap="round" stroke-linejoin="round"/></g>
<g id="check-3" transform="translate(360 72)"><path d="m5 12 4 4L19 6" fill="none" stroke="#ffffff" stroke-width="1.8" stroke-linecap="round" stroke-linejoin="round"/></g>
<g id="home-4" transform="translate(0 96)"><path d="M3 10 12 3l9 7M5 9v12h5v-7h4v7h5V9" fill="none" stroke="#ff8ab5" stroke-width="1.8" stroke-linecap="round" stroke-linejoin="round"/></g>
<g id="exchange-4" transform="translate(24 96)"><path d="M4 8h15l-4-4M20 16H5l4 4M19 8l-4 4M5 16l4-4" fill="none" stroke="#ff8ab5" stroke-width="1.8" stroke-linecap="round" stroke-linejoin="round"/></g>
<g id="plus-4" transform="translate(48 96)"><path d="M12 4v16M4 12h16" fill="none" stroke="#ff8ab5" stroke-width="1.8" stroke-linecap="round" stroke-linejoin="round"/></g>
<g id="user-4" transform="translate(72 96)"><path d="M16 7a4 4 0 1 1-8 0 4 4 0 0 1 8 0M4 21v-2a8 8 0 0 1 16 0v2" fill="none" stroke="#ff8ab5" stroke-width="1.8" stroke-linecap="round" stroke-linejoin="round"/></g>
<g id="search-4" transform="translate(96 96)"><path d="M17 10a7 7 0 1 1-14 0 7 7 0 0 1 14 0M15 15l6 6" fill="none" stroke="#ff8ab5" stroke-width="1.8" stroke-linecap="round" stroke-linejoin="round"/></g>
<g id="close-4" transform="translate(120 96)"><path d="M6 6l12 12M18 6 6 18" fill="none" stroke="#ff8ab5" stroke-width="1.8" stroke-linecap="round" stroke-linejoin="round"/></g>
<g id="sun-4" transform="translate(144 96)"><path d="M16 12a4 4 0 1 1-8 0 4 4 0 0 1 8 0M12 2v2M12 20v2M2 12h2M20 12h2M5 5l1.5 1.5M17.5 17.5 19 19M5 19l1.5-1.5M17.5 6.5 19 5" fill="none" stroke="#ff8ab5" stroke-width="1.8" stroke-linecap="round" stroke-linejoin="round"/></g>
<g id="moon-4" transform="translate(168 96)"><path d="M20 14A8.5 8.5 0 1 1 10 3a7 7 0 0 0 10 11Z" fill="none" stroke="#ff8ab5" stroke-width="1.8" stroke-linecap="round" stroke-linejoin="round"/></g>
<g id="heart-4" transform="translate(192 96)"><path d="M12 21 3.8 13A5.5 5.5 0 0 1 12 5.7 5.5 5.5 0 0 1 20.2 13Z" fill="none" stroke="#ff8ab5" stroke-width="1.8" stroke-linecap="round" stroke-linejoin="round"/></g>
<g id="arrow-4" transform="translate(216 96)"><path d="M4 12h16M14 6l6 6-6 6" fill="none" stroke="#ff8ab5" stroke-width="1.8" stroke-linecap="round" stroke-linejoin="round"/></g>
<g id="grid-4" transform="translate(240 96)"><path d="M3 3h7v7H3ZM14 3h7v7h-7ZM3 14h7v7H3ZM14 14h7v7h-7Z" fill="none" stroke="#ff8ab5" stroke-width="1.8" stroke-linecap="round" stroke-linejoin="round"/></g>
<g id="target-4" transform="translate(264 96)"><path d="M21 12a9 9 0 1 1-18 0 9 9 0 0 1 18 0M16 12a4 4 0 1 1-8 0 4 4 0 0 1 8 0" fill="none" stroke="#ff8ab5" stroke-width="1.8" stroke-linecap="round" stroke-linejoin="round"/></g>
<g id="alert-4" transform="translate(288 96)"><path d="M12 3 2 21h20ZM12 9v5M12 17v.5" fill="none" stroke="#ff8ab5" stroke-width="1.8" stroke-linecap="round" stroke-linejoin="round"/></g>
<g id="loop-4" transform="translate(312 96)"><path d="M20 9A8 8 0 0 0 5 6L2 9M2 3v6h6M4 15a8 8 0 0 0 15 3l3-3M22 21v-6h-6" fill="none" stroke="#ff8ab5" stroke-width="1.8" stroke-linecap="round" stroke-linejoin="round"/></g>
<g id="box-4" transform="translate(336 96)"><path d="m3 7 9-5 9 5v10l-9 5-9-5ZM3 7l9 5 9-5M12 12v10M7.5 4.5l9 5V15" fill="none" stroke="#ff8ab5" stroke-width="1.8" stroke-linecap="round" stroke-linejoin="round"/></g>
<g id="check-4" transform="translate(360 96)"><path d="m5 12 4 4L19 6" fill="none" stroke="#ff8ab5" stroke-width="1.8" stroke-linecap="round" stroke-linejoin="round"/></g></svg>